<svg xmlns="http://www.w3.org/2000/svg" viewBox="0 0 100 100" width="100" height="100">
  <rect width="100" height="100" rx="22" fill="#FBF3E4"/>
  <g transform="translate(50 54) scale(0.62) translate(-60 -68)">
    <ellipse cx="60" cy="126" rx="30" ry="5" fill="rgba(120,90,50,0.12)"/>
    <ellipse cx="47" cy="120" rx="9" ry="6" fill="#E7B25A"/>
    <ellipse cx="73" cy="120" rx="9" ry="6" fill="#E7B25A"/>
    <path d="M60 13 q-7 2 -5 11 q5 -4 10 0 q3 -9 -5 -11 Z" fill="#F4CB7A" stroke="#E0A94E" stroke-width="2.4" stroke-linejoin="round"/>
    <ellipse cx="60" cy="68" rx="45" ry="47" fill="#F6D389" stroke="#E0A94E" stroke-width="3"/>
    <ellipse cx="36" cy="80" rx="7.5" ry="4.5" fill="#F2A6A0" opacity="0.7"/>
    <ellipse cx="84" cy="80" rx="7.5" ry="4.5" fill="#F2A6A0" opacity="0.7"/>
    <circle cx="46" cy="64" r="4.6" fill="#4A3A2C"/>
    <circle cx="74" cy="64" r="4.6" fill="#4A3A2C"/>
    <circle cx="47.6" cy="62.4" r="1.5" fill="#fff"/>
    <circle cx="75.6" cy="62.4" r="1.5" fill="#fff"/>
    <path d="M50 78 q10 9 20 0" stroke="#4A3A2C" stroke-width="3" fill="none" stroke-linecap="round"/>
  </g>
</svg>
